<svg width="178" height="50" viewBox="0 0 178 50" fill="none" xmlns="http://www.w3.org/2000/svg">
<path d="M39.5311 32.6963C32.7281 32.6963 27.1286 37.8655 26.4483 44.4758C26.3855 44.7786 26.3436 45.0919 26.3436 45.4156C26.3436 47.8383 28.3113 49.8016 30.7395 49.8016C33.1676 49.8016 35.1353 47.8383 35.1353 45.4156C35.3446 43.2122 37.2704 41.4787 39.5416 41.4787C41.9698 41.4683 43.9374 39.505 43.9374 37.0823C43.9374 34.6596 41.9698 32.6963 39.5416 32.6963H39.5311Z" fill="#77D0E9"/>
<path d="M39.5311 19.5071C32.4873 19.5071 25.8622 22.2431 20.8802 27.2139C15.9925 32.0906 13.2608 38.5338 13.1561 45.4052H13.177C13.177 47.8279 15.1447 49.7911 17.5729 49.7911C20.0011 49.7911 21.9687 47.8279 21.9687 45.4052C22.1885 35.9127 29.9754 28.279 39.5416 28.279C41.9698 28.2686 43.9374 26.3053 43.9374 23.8826C43.9374 21.4599 41.9698 19.4967 39.5416 19.4967L39.5311 19.5071Z" fill="#2583C5"/>
<path d="M39.5311 15.1629C41.9593 15.1525 43.927 13.1892 43.927 10.7665C43.927 8.34378 41.9593 6.38053 39.5311 6.38053C34.1933 6.38053 29.023 7.42481 24.1352 9.48204C19.4254 11.4662 15.197 14.317 11.5757 17.9302C11.2617 18.2435 10.9582 18.5672 10.6547 18.891L10.6965 18.8388C10.4977 19.0581 10.2046 19.1938 9.88017 19.1938C9.27312 19.1938 8.78121 18.703 8.78121 18.0973V10.7561C8.78121 8.33333 6.81355 6.37009 4.38537 6.37009C1.95719 6.37009 0 8.34378 0 10.7665V45.4156C0 47.8279 1.96766 49.7911 4.39584 49.7911C6.82401 49.7911 8.79167 47.8279 8.79167 45.4052H8.80214C9.02193 28.6654 22.7014 15.1525 39.5311 15.1525V15.1629Z" fill="#1C3D71"/>
<path d="M57.5855 15.2778C57.5855 13.6696 57.9936 12.4791 58.81 11.7063C59.6264 10.9336 60.7253 10.5472 62.1069 10.5472C62.2744 10.5472 62.4418 10.5576 62.6197 10.5785C62.7977 10.5994 62.9756 10.6307 63.164 10.6725V6.12991C61.5731 6.12991 60.223 6.43275 59.1135 7.04887C58.3914 7.4457 57.8157 7.97828 57.3552 8.61529V6.37009H52.6768V23.2143H57.575V15.2673L57.5855 15.2778Z" fill="#595A5C"/>
<path d="M75.3677 21.1048V23.2247H79.9519V13.6174C79.9519 11.0485 79.2402 9.15831 77.8168 7.95739C76.3934 6.74603 74.3943 6.14035 71.8196 6.14035C70.4799 6.14035 69.1612 6.30743 67.8633 6.65205C66.5655 6.99666 65.4561 7.49791 64.5351 8.16625L66.262 11.581C66.89 11.1007 67.6331 10.7247 68.5018 10.4428C69.3705 10.1608 70.2497 10.0251 71.1498 10.0251C72.4685 10.0251 73.4419 10.3175 74.0803 10.9023C74.7188 11.4871 75.0328 12.3016 75.0328 13.3459V13.3772H71.1707C69.4333 13.3772 68.0308 13.586 66.9632 14.0038C65.8957 14.4215 65.1212 15.0063 64.6293 15.7686C64.1374 16.5309 63.8966 17.3977 63.8966 18.3793C63.8966 19.3609 64.1478 20.2068 64.6607 20.9795C65.1735 21.7523 65.8957 22.358 66.8377 22.807C67.7796 23.2561 68.8995 23.4754 70.1973 23.4754C71.6835 23.4754 72.8976 23.183 73.8396 22.619C74.478 22.2327 74.9804 21.721 75.3467 21.1048H75.3677ZM71.4219 20.1859C70.5846 20.1859 69.9252 20.0084 69.4333 19.6429C68.9414 19.2774 68.7007 18.7865 68.7007 18.16C68.7007 17.5961 68.91 17.1262 69.3391 16.7502C69.7682 16.3743 70.5532 16.1863 71.7045 16.1863H75.0642V17.9094C74.792 18.6821 74.3315 19.2565 73.6721 19.6324C73.0128 20.0084 72.2697 20.1963 71.4324 20.1963L71.4219 20.1859Z" fill="#595A5C"/>
<path d="M95.0129 21.2928V23.2247H99.6913V0H94.7931V8.15581C94.4058 7.72765 93.9662 7.36215 93.4743 7.06976C92.4068 6.44319 91.1613 6.12991 89.7379 6.12991C88.147 6.12991 86.7131 6.48496 85.4362 7.20551C84.1593 7.92606 83.1546 8.92857 82.4219 10.2235C81.6893 11.5184 81.323 13.043 81.323 14.7974C81.323 16.5518 81.6893 18.0764 82.4219 19.3713C83.1546 20.6662 84.1593 21.6688 85.4362 22.3893C86.7131 23.1099 88.147 23.4649 89.7379 23.4649C91.2241 23.4649 92.4905 23.1621 93.5476 22.5459C94.1023 22.2222 94.5838 21.7941 95.0024 21.2824L95.0129 21.2928ZM90.5542 19.4653C89.7588 19.4653 89.0366 19.2878 88.3877 18.9223C87.7388 18.5568 87.226 18.0242 86.8387 17.3141C86.4515 16.604 86.2631 15.7686 86.2631 14.8079C86.2631 13.8471 86.4515 12.9908 86.8387 12.3016C87.226 11.6124 87.7388 11.0902 88.3877 10.7247C89.0366 10.3592 89.7588 10.1817 90.5542 10.1817C91.3497 10.1817 92.1033 10.3592 92.7522 10.7247C93.4011 11.0902 93.9139 11.6124 94.3012 12.3016C94.6884 12.9908 94.8768 13.8262 94.8768 14.8079C94.8768 15.7895 94.678 16.604 94.3012 17.3141C93.9139 18.0242 93.4011 18.5568 92.7522 18.9223C92.1033 19.2878 91.3706 19.4653 90.5542 19.4653Z" fill="#595A5C"/>
<path d="M108.42 13.3667C106.683 13.3667 105.28 13.5756 104.213 13.9933C103.145 14.411 102.371 14.9958 101.879 15.7581C101.387 16.5205 101.146 17.3872 101.146 18.3688C101.146 19.3505 101.397 20.1963 101.91 20.9691C102.423 21.7419 103.145 22.3475 104.087 22.7966C105.029 23.2456 106.149 23.4649 107.447 23.4649C108.933 23.4649 110.147 23.1725 111.089 22.6086C111.728 22.2222 112.23 21.7105 112.596 21.0944V23.2143H117.18V13.6069C117.18 11.038 116.469 9.14787 115.045 7.94695C113.622 6.73559 111.623 6.12991 109.048 6.12991C107.708 6.12991 106.39 6.29699 105.092 6.6416C103.794 6.98622 102.685 7.48747 101.764 8.15581L103.491 11.5706C104.119 11.0902 104.862 10.7143 105.73 10.4323C106.599 10.1504 107.478 10.0146 108.378 10.0146C109.697 10.0146 110.67 10.307 111.309 10.8918C111.947 11.4766 112.261 12.2911 112.261 13.3354V13.3667H108.399H108.42ZM110.88 19.622C110.22 19.9979 109.477 20.1859 108.64 20.1859C107.803 20.1859 107.143 20.0084 106.651 19.6429C106.159 19.2774 105.919 18.7865 105.919 18.16C105.919 17.5961 106.128 17.1262 106.557 16.7502C106.986 16.3743 107.771 16.1863 108.923 16.1863H112.282V17.9094C112.01 18.6821 111.55 19.2565 110.89 19.6324L110.88 19.622Z" fill="#595A5C"/>
<path d="M66.5446 33.4691C65.4875 32.9365 64.2944 32.6754 62.9547 32.6754C61.5103 32.6754 60.223 32.9783 59.0926 33.584C58.4228 33.939 57.8576 34.4089 57.3657 34.952V32.9261H52.6872V49.7703H57.5855V41.4474C57.5855 40.3822 57.7529 39.5259 58.0983 38.8784C58.4437 38.231 58.9251 37.7402 59.5427 37.406C60.1602 37.0718 60.8509 36.9048 61.6255 36.9048C62.7139 36.9048 63.5513 37.2285 64.1478 37.8759C64.7444 38.5234 65.0375 39.5259 65.0375 40.8835V49.7703H69.9357V40.1316C69.9357 38.419 69.6322 37.0196 69.0251 35.9231C68.4181 34.8266 67.5912 34.0121 66.5341 33.4795L66.5446 33.4691Z" fill="#595A5C"/>
<path d="M85.3944 33.4691C84.3373 32.9365 83.1441 32.6754 81.8044 32.6754C80.3601 32.6754 79.0727 32.9783 77.9424 33.584C77.3772 33.8868 76.8748 34.2627 76.4352 34.6909V26.5351H71.537V49.7598H76.4352V41.4369C76.4352 40.3718 76.6027 39.5155 76.9481 38.868C77.2935 38.2206 77.7749 37.7297 78.3924 37.3956C79.0099 37.0614 79.7007 36.8943 80.4752 36.8943C81.5637 36.8943 82.401 37.218 82.9976 37.8655C83.5942 38.5129 83.8872 39.5155 83.8872 40.873V49.7598H88.7854V40.1211C88.7854 38.4085 88.4819 37.0092 87.8749 35.9127C87.2678 34.8162 86.441 34.0017 85.3839 33.4691H85.3944Z" fill="#595A5C"/>
<path d="M103.93 34.482C102.507 33.2707 100.508 32.665 97.933 32.665C96.5933 32.665 95.2745 32.8321 93.9767 33.1767C92.6789 33.5213 91.5695 34.0226 90.6484 34.6909L92.3754 38.1057C93.0034 37.6253 93.7465 37.2494 94.6152 36.9674C95.4839 36.6855 96.363 36.5497 97.2631 36.5497C98.5819 36.5497 99.5553 36.8421 100.194 37.4269C100.832 38.0117 101.146 38.8262 101.146 39.8705V39.9018H97.2841C95.5467 39.9018 94.1442 40.1107 93.0766 40.5284C92.0091 40.9461 91.2346 41.5309 90.7426 42.2932C90.2507 43.0556 90.01 43.9223 90.01 44.9039C90.01 45.8855 90.2612 46.7314 90.774 47.5042C91.2869 48.2769 92.0091 48.8826 92.951 49.3317C93.893 49.7807 95.0129 50 96.3107 50C97.7969 50 99.011 49.7076 99.953 49.1437C100.591 48.7573 101.094 48.2456 101.46 47.6295V49.7494H106.044V40.142C106.044 37.5731 105.333 35.683 103.909 34.482H103.93ZM99.775 46.1571C99.1157 46.533 98.3726 46.721 97.5353 46.721C96.698 46.721 96.0386 46.5434 95.5467 46.1779C95.0547 45.8124 94.814 45.3216 94.814 44.6951C94.814 44.1312 95.0233 43.6612 95.4525 43.2853C95.8816 42.9094 96.6666 42.7214 97.8178 42.7214H101.178V44.4444C100.905 45.2172 100.445 45.7916 99.7855 46.1675L99.775 46.1571Z" fill="#595A5C"/>
<path d="M120.875 34.6909C120.488 34.2627 120.048 33.8972 119.556 33.6048C118.489 32.9783 117.243 32.665 115.82 32.665C114.229 32.665 112.795 33.0201 111.518 33.7406C110.241 34.4612 109.237 35.4637 108.504 36.7586C107.771 38.0535 107.405 39.5781 107.405 41.3325C107.405 43.0869 107.771 44.6115 108.504 45.9064C109.237 47.2013 110.241 48.2038 111.518 48.9244C112.795 49.6449 114.229 50 115.82 50C117.306 50 118.572 49.6972 119.63 49.081C120.184 48.7573 120.666 48.3292 121.084 47.8175V49.7494H125.763V26.5246H120.865V34.6804L120.875 34.6909ZM120.394 43.8492C120.006 44.5593 119.494 45.0919 118.845 45.4574C118.196 45.8229 117.463 46.0004 116.647 46.0004C115.83 46.0004 115.129 45.8229 114.48 45.4574C113.831 45.0919 113.318 44.5593 112.931 43.8492C112.544 43.1391 112.356 42.3037 112.356 41.3429C112.356 40.3822 112.544 39.5259 112.931 38.8367C113.318 38.1474 113.831 37.6253 114.48 37.2598C115.129 36.8943 115.851 36.7168 116.647 36.7168C117.442 36.7168 118.196 36.8943 118.845 37.2598C119.494 37.6253 120.006 38.1474 120.394 38.8367C120.781 39.5259 120.969 40.3613 120.969 41.3429C120.969 42.3246 120.77 43.1391 120.394 43.8492Z" fill="#595A5C"/>
<path d="M141.117 34.482C139.693 33.2707 137.694 32.665 135.12 32.665C133.78 32.665 132.461 32.8321 131.163 33.1767C129.866 33.5213 128.756 34.0226 127.835 34.6909L129.562 38.1057C130.19 37.6253 130.933 37.2494 131.802 36.9674C132.671 36.6855 133.55 36.5497 134.45 36.5497C135.769 36.5497 136.742 36.8421 137.38 37.4269C138.019 38.0117 138.333 38.8262 138.333 39.8705V39.9018H134.471C132.733 39.9018 131.331 40.1107 130.263 40.5284C129.196 40.9461 128.421 41.5309 127.929 42.2932C127.437 43.0556 127.197 43.9223 127.197 44.9039C127.197 45.8855 127.448 46.7314 127.961 47.5042C128.474 48.2769 129.196 48.8826 130.138 49.3317C131.08 49.7807 132.2 50 133.497 50C134.984 50 136.198 49.7076 137.14 49.1437C137.778 48.7573 138.28 48.2456 138.647 47.6295V49.7494H143.231V40.142C143.231 37.5731 142.519 35.683 141.096 34.482H141.117ZM136.962 46.1571C136.302 46.533 135.559 46.721 134.722 46.721C133.885 46.721 133.225 46.5434 132.733 46.1779C132.241 45.8124 132.001 45.3216 132.001 44.6951C132.001 44.1312 132.21 43.6612 132.639 43.2853C133.068 42.9094 133.853 42.7214 135.005 42.7214H138.364V44.4444C138.092 45.2172 137.632 45.7916 136.972 46.1675L136.962 46.1571Z" fill="#595A5C"/>
<path d="M153.634 46.1257C153.007 46.1257 152.515 45.9273 152.148 45.5305C151.782 45.1337 151.604 44.5802 151.604 43.8701V37.051H155.78V33.2916H151.604V29.1876H146.674V33.2916H144.068V37.051H146.674V43.9641C146.674 45.9691 147.229 47.4728 148.339 48.4858C149.448 49.4987 150.997 50 152.986 50C153.739 50 154.461 49.906 155.163 49.7285C155.864 49.551 156.45 49.2899 156.931 48.9348L155.644 45.4887C155.1 45.9064 154.43 46.1153 153.634 46.1153V46.1257Z" fill="#595A5C"/>
<path d="M159.684 47.713C159.391 47.713 159.14 47.807 158.93 48.0054C158.721 48.2038 158.616 48.4649 158.616 48.7782C158.616 49.0915 158.721 49.3421 158.93 49.5405C159.14 49.7389 159.391 49.8434 159.684 49.8434C159.977 49.8434 160.239 49.7389 160.438 49.5405C160.647 49.3421 160.741 49.0915 160.741 48.7782C160.741 48.4545 160.636 48.2038 160.438 48.0054C160.228 47.807 159.977 47.713 159.684 47.713Z" fill="#595A5C"/>
<path d="M164.279 47.1387L161.997 41.5414H159.548L163.012 49.7598H165.461L168.936 41.5414H166.655L164.279 47.1387Z" fill="#595A5C"/>
<path d="M177.56 42.9929C177.267 42.4603 176.859 42.0635 176.346 41.8024C175.833 41.5413 175.247 41.416 174.588 41.416C173.887 41.416 173.259 41.5622 172.704 41.8546C172.38 42.0322 172.097 42.2619 171.867 42.523V41.5309H169.585V49.7598H171.971V45.6976C171.971 45.1754 172.055 44.7577 172.223 44.4444C172.39 44.1312 172.631 43.891 172.924 43.7239C173.227 43.5568 173.562 43.4837 173.939 43.4837C174.473 43.4837 174.881 43.6404 175.174 43.9536C175.467 44.2669 175.614 44.7577 175.614 45.4261V49.7703H178V45.0606C178 44.2251 177.853 43.5359 177.56 43.0033V42.9929Z" fill="#595A5C"/>
</svg>
